HIERARCHY
ROOT Reference
{
  OFFSET 0 0 0
  CHANNELS 6 Xposition Yposition Zposition Zrotation Xrotation Yrotation
  JOINT Hips
  {
    OFFSET 251.394 724.17 483.536
    CHANNELS 3 Zrotation Xrotation Yrotation
    JOINT RightUpLeg
    {
      OFFSET -0.450515 -23.4426 -1.37224
      CHANNELS 3 Zrotation Xrotation Yrotation
      JOINT RightLeg
      {
        OFFSET 112.821 0.0872427 -0.321027
        CHANNELS 3 Zrotation Xrotation Yrotation
        JOINT RightFoot
        {
          OFFSET 105.718 0.000193788 0.0213165
          CHANNELS 3 Zrotation Xrotation Yrotation
          JOINT RightToeBase
          {
            OFFSET 37.638 -0.000116272 0.00224792
            CHANNELS 3 Zrotation Xrotation Yrotation
            JOINT RightToeEnd
            {
              OFFSET 21.2112 0.114605 -0.000138184
              CHANNELS 3 Zrotation Xrotation Yrotation
              End Site
              {
                OFFSET 0 0 0
              }
            }
          }
        }
      }
    }
    JOINT LeftUpLeg
    {
      OFFSET -0.449508 23.4315 -1.37054
      CHANNELS 3 Zrotation Xrotation Yrotation
      JOINT LeftLeg
      {
        OFFSET 112.821 -0.0485242 -0.372458
        CHANNELS 3 Zrotation Xrotation Yrotation
        JOINT LeftFoot
        {
          OFFSET 105.716 0.00496094 -0.0229443
          CHANNELS 3 Zrotation Xrotation Yrotation
          JOINT LeftToeBase
          {
            OFFSET 37.639 0 0.00158905
            CHANNELS 3 Zrotation Xrotation Yrotation
            JOINT LeftToeEnd
            {
              OFFSET 21.2113 -0.125031 -0.00017438
              CHANNELS 3 Zrotation Xrotation Yrotation
              End Site
              {
                OFFSET 0 0 0
              }
            }
          }
        }
      }
    }
    JOINT Spine
    {
      OFFSET -5.01225 0.000463591 -9.60395
      CHANNELS 3 Zrotation Xrotation Yrotation
      JOINT Spine1
      {
        OFFSET 26.0222 -0.000271301 -0.000155029
        CHANNELS 3 Zrotation Xrotation Yrotation
        JOINT Spine2
        {
          OFFSET 27.173 -0.000155029 -0.000310058
          CHANNELS 3 Zrotation Xrotation Yrotation
          JOINT Spine3
          {
            OFFSET 36.3953 -0.000232544 7.75146e-005
            CHANNELS 3 Zrotation Xrotation Yrotation
            JOINT Neck
            {
              OFFSET 36.4331 0 -3.00261
              CHANNELS 3 Zrotation Xrotation Yrotation
              JOINT Head
              {
                OFFSET 23.0407 -0.000232544 -0.000310058
                CHANNELS 3 Zrotation Xrotation Yrotation
                End Site
                {
                  OFFSET 0 0 0
                }
              }
            }
            JOINT LeftShoulder
            {
              OFFSET 20.1317 6.74168 -12.6061
              CHANNELS 3 Zrotation Xrotation Yrotation
              JOINT LeftArm
              {
                OFFSET 34.2172 -5.81359e-005 7.75146e-005
                CHANNELS 3 Zrotation Xrotation Yrotation
                JOINT LeftForeArm
                {
                  OFFSET 65.4129 -0.0821605 0.0585235
                  CHANNELS 3 Zrotation Xrotation Yrotation
                  JOINT LeftHand
                  {
                    OFFSET 67.3883 0.0359667 0.0112396
                    CHANNELS 3 Zrotation Xrotation Yrotation
                    JOINT LeftHandThumb1
                    {
                      OFFSET 8.78386 2.85353 -6.05362
                      CHANNELS 3 Zrotation Xrotation Yrotation
                      JOINT LeftHandThumb2
                      {
                        OFFSET 8.25498 -0.000116272 -0.000174407
                        CHANNELS 3 Zrotation Xrotation Yrotation
                        JOINT LeftHandThumb3
                        {
                          OFFSET 7.24822 0.000310058 5.81358e-005
                          CHANNELS 3 Zrotation Xrotation Yrotation
                          JOINT LeftHandThumb4
                          {
                            OFFSET 7.0004 -3.87568e-005 -0.000310057
                            CHANNELS 3 Zrotation Xrotation Yrotation
                            End Site
                            {
                              OFFSET 0 0 0
                            }
                          }
                        }
                      }
                    }
                    JOINT LeftHandIndex1
                    {
                      OFFSET 24.0991 -1.01537 -5.40558
                      CHANNELS 3 Zrotation Xrotation Yrotation
                      JOINT LeftHandIndex2
                      {
                        OFFSET 7.26759 -0.000290679 -0.000465086
                        CHANNELS 3 Zrotation Xrotation Yrotation
                        JOINT LeftHandIndex3
                        {
                          OFFSET 7.13628 -1.93787e-005 0.000232543
                          CHANNELS 3 Zrotation Xrotation Yrotation
                          JOINT LeftHandIndex4
                          {
                            OFFSET 5.46699 9.68932e-005 -0.000387571
                            CHANNELS 3 Zrotation Xrotation Yrotation
                            End Site
                            {
                              OFFSET 0 0 0
                            }
                          }
                        }
                      }
                    }
                    JOINT LeftHandMiddle1
                    {
                      OFFSET 24.4604 -2.52837 0.918567
                      CHANNELS 3 Zrotation Xrotation Yrotation
                      JOINT LeftHandMiddle2
                      {
                        OFFSET 7.41627 -5.81359e-005 0.000116271
                        CHANNELS 3 Zrotation Xrotation Yrotation
                        JOINT LeftHandMiddle3
                        {
                          OFFSET 8.76829 3.87573e-005 -7.75142e-005
                          CHANNELS 3 Zrotation Xrotation Yrotation
                          JOINT LeftHandMiddle4
                          {
                            OFFSET 6.07588 -0.00013565 -5.81356e-005
                            CHANNELS 3 Zrotation Xrotation Yrotation
                            End Site
                            {
                              OFFSET 0 0 0
                            }
                          }
                        }
                      }
                    }
                    JOINT LeftHandRing1
                    {
                      OFFSET 22.465 -1.97467 6.3466
                      CHANNELS 3 Zrotation Xrotation Yrotation
                      JOINT LeftHandRing2
                      {
                        OFFSET 7.36666 -0.000232544 0.000387571
                        CHANNELS 3 Zrotation Xrotation Yrotation
                        JOINT LeftHandRing3
                        {
                          OFFSET 8.07624 -0.000465087 -0.000203475
                          CHANNELS 3 Zrotation Xrotation Yrotation
                          JOINT LeftHandRing4
                          {
                            OFFSET 6.04433 0.00013565 3.87571e-005
                            CHANNELS 3 Zrotation Xrotation Yrotation
                            End Site
                            {
                              OFFSET 0 0 0
                            }
                          }
                        }
                      }
                    }
                    JOINT LeftHandPinky1
                    {
                      OFFSET 19.5278 0.352933 10.4295
                      CHANNELS 3 Zrotation Xrotation Yrotation
                      JOINT LeftHandPinky2
                      {
                        OFFSET 6.16525 5.8136e-005 -0.000251921
                        CHANNELS 3 Zrotation Xrotation Yrotation
                        JOINT LeftHandPinky3
                        {
                          OFFSET 6.14448 -0.000329434 -0.00510625
                          CHANNELS 3 Zrotation Xrotation Yrotation
                          JOINT LeftHandPinky4
                          {
                            OFFSET 4.98555 0.000116272 0.000116271
                            CHANNELS 3 Zrotation Xrotation Yrotation
                            End Site
                            {
                              OFFSET 0 0 0
                            }
                          }
                        }
                      }
                    }
                  }
                }
              }
            }
            JOINT RightShoulder
            {
              OFFSET 20.1309 -6.74152 -12.6063
              CHANNELS 3 Zrotation Xrotation Yrotation
              JOINT RightArm
              {
                OFFSET 34.2171 7.75146e-005 7.75146e-005
                CHANNELS 3 Zrotation Xrotation Yrotation
                JOINT RightForeArm
                {
                  OFFSET 65.4492 0.242543 -0.176501
                  CHANNELS 3 Zrotation Xrotation Yrotation
                  JOINT RightHand
                  {
                    OFFSET 67.3888 -0.0867388 0.0597442
                    CHANNELS 3 Zrotation Xrotation Yrotation
                    JOINT RightHandThumb1
                    {
                      OFFSET 8.78307 -2.85357 -6.05302
                      CHANNELS 3 Zrotation Xrotation Yrotation
                      JOINT RightHandThumb2
                      {
                        OFFSET 8.25493 -7.75145e-005 0
                        CHANNELS 3 Zrotation Xrotation Yrotation
                        JOINT RightHandThumb3
                        {
                          OFFSET 7.24797 -0.000174408 0.000155029
                          CHANNELS 3 Zrotation Xrotation Yrotation
                          JOINT RightHandThumb4
                          {
                            OFFSET 7.00062 0 0
                            CHANNELS 3 Zrotation Xrotation Yrotation
                            End Site
                            {
                              OFFSET 0 0 0
                            }
                          }
                        }
                      }
                    }
                    JOINT RightHandIndex1
                    {
                      OFFSET 24.0991 1.01525 -5.40578
                      CHANNELS 3 Zrotation Xrotation Yrotation
                      JOINT RightHandIndex2
                      {
                        OFFSET 7.26773 7.75144e-005 0.000232543
                        CHANNELS 3 Zrotation Xrotation Yrotation
                        JOINT RightHandIndex3
                        {
                          OFFSET 7.13572 -0.000310058 3.87571e-005
                          CHANNELS 3 Zrotation Xrotation Yrotation
                          JOINT RightHandIndex4
                          {
                            OFFSET 5.46717 0 3.87572e-005
                            CHANNELS 3 Zrotation Xrotation Yrotation
                            End Site
                            {
                              OFFSET 0 0 0
                            }
                          }
                        }
                      }
                    }
                    JOINT RightHandMiddle1
                    {
                      OFFSET 24.4603 2.52899 0.918547
                      CHANNELS 3 Zrotation Xrotation Yrotation
                      JOINT RightHandMiddle2
                      {
                        OFFSET 7.41641 -0.000116272 -0.000116272
                        CHANNELS 3 Zrotation Xrotation Yrotation
                        JOINT RightHandMiddle3
                        {
                          OFFSET 8.76765 -3.87577e-005 0.000232543
                          CHANNELS 3 Zrotation Xrotation Yrotation
                          JOINT RightHandMiddle4
                          {
                            OFFSET 6.07609 -0.000193787 -0.000116271
                            CHANNELS 3 Zrotation Xrotation Yrotation
                            End Site
                            {
                              OFFSET 0 0 0
                            }
                          }
                        }
                      }
                    }
                    JOINT RightHandRing1
                    {
                      OFFSET 22.465 1.97571 6.34696
                      CHANNELS 3 Zrotation Xrotation Yrotation
                      JOINT RightHandRing2
                      {
                        OFFSET 7.36684 0.000193786 0.000155029
                        CHANNELS 3 Zrotation Xrotation Yrotation
                        JOINT RightHandRing3
                        {
                          OFFSET 8.07614 -0.000271301 0
                          CHANNELS 3 Zrotation Xrotation Yrotation
                          JOINT RightHandRing4
                          {
                            OFFSET 6.04468 0.000232543 0
                            CHANNELS 3 Zrotation Xrotation Yrotation
                            End Site
                            {
                              OFFSET 0 0 0
                            }
                          }
                        }
                      }
                    }
                    JOINT RightHandPinky1
                    {
                      OFFSET 19.5277 -0.352346 10.4296
                      CHANNELS 3 Zrotation Xrotation Yrotation
                      JOINT RightHandPinky2
                      {
                        OFFSET 6.16508 0 0.000232543
                        CHANNELS 3 Zrotation Xrotation Yrotation
                        JOINT RightHandPinky3
                        {
                          OFFSET 6.14396 -0.000155048 -0.0048834
                          CHANNELS 3 Zrotation Xrotation Yrotation
                          JOINT RightHandPinky4
                          {
                            OFFSET 4.98577 -7.75146e-005 -7.75143e-005
                            CHANNELS 3 Zrotation Xrotation Yrotation
                            End Site
                            {
                              OFFSET 0 0 0
                            }
                          }
                        }
                      }
                    }
                  }
                }
              }
            }
          }
        }
      }
    }
  }
}
MOTION
Frames:	4
Frame Time:	0.0333333
0 0 0 -90 -7.01671e-015 -180 -8.74411 -2.66997 -135.963 157.76 -26.4917 -119.109 -5.08108 6.23361 -140.634 6.47625 -2.00667 122.265 -10.8354 1.60662 82.6517 3.91966e-005 2.08121e-005 -86.4974 175.507 8.85889 -33.6871 12.2779 -11.5467 -132.594 -3.29519 3.18671 65.8772 0.769484 -0.248357 56.9402 -9.32807e-005 -0.000128984 -86.4974 -1.78476 8.11814 162.053 4.92516 -2.33017 -12.1263 4.10956 1.18072 -11.7425 -1.77292 4.2497 8.65225 -5.46456 5.97442 20.7458 -0.235034 1.73364 21.725 96.7518 26.9025 -28.0493 51.3874 14.9439 29.6005 1.23725 14.9411 101.408 -35.8412 39.0289 31.7219 -165.809 6.81145 138.463 0.000480241 0.000109664 25.2093 0.000308334 7.04848e-006 26.0589 0.000110569 -0.00132917 -6.78513 58.398 81.6723 -50.8356 3.26465 1.49035 24.516 3.35934 1.26671 20.6561 3.44399 -0.139379 -2.31614 -1.69336 86.8811 14.3318 2.82709e-005 -0.000160219 17.605 0.00109255 -0.000772273 18.4312 -0.000579651 -0.00021143 -2.32823 -57.4813 85.9292 71.493 0.000115505 -0.000855593 16.7952 0.00142865 -0.000274039 17.642 -0.000680181 -0.000833508 -2.32753 -63.1802 86.0904 61.4216 0.00121222 -0.00132478 19.2128 -1.21935e-005 -0.000165142 17.3973 -2.74648e-005 -0.000160551 -2.32871 -71.5735 -28.7646 4.34905 -27.2511 40.1799 78.3666 7.29423 26.0011 64.2988 -2.38701 -28.1724 -12.3963 156.161 0.774762 162.598 -5.79217e-005 0.000146389 15.7476 0.00014889 0.000239538 15.1956 -0.000228882 -0.000137329 -180 -100.95 -83.387 -70.6278 -0.000156796 -0.000302779 19.3034 0.000226479 0.000204876 18.2161 -9.17505e-005 -1.52575e-005 179.258 4.591 -89.2713 51.0591 -2.58538e-005 0.000152466 38.1799 -6.31625e-005 0.000318765 30.2942 -7.53058e-005 7.62875e-005 179.258 38.1461 -86.7012 88.9761 0.000111523 -3.89876e-005 42.042 -0.000121896 0.000445568 34.1686 1.50612e-005 -1.52575e-005 179.258 19.4745 -84.7335 72.4924 -0.00016098 0.000470499 40.6276 5.58753e-006 0.000187397 38.0709 0.00507304 -0.00180039 179.255 
0 0 0 -90 -7.01671e-015 -180 -8.74861 -2.68842 -135.953 157.406 -26.4833 -119.371 -5.16821 6.40496 -140.913 6.49612 -2.07426 122.695 -10.8354 1.60659 82.6518 3.9251e-005 6.46501e-006 -86.4974 175.492 8.86951 -33.2154 12.2202 -11.5999 -132.863 -3.22555 3.20314 65.6936 0.769484 -0.248407 56.9402 -9.25816e-005 9.41904e-005 -86.4974 -1.76816 8.04704 161.638 4.92482 -2.2803 -12.3113 4.09096 1.19673 -11.935 -1.76779 4.27667 8.45927 -5.41978 6.61415 21.3004 -0.0559489 2.26691 22.3741 96.7518 26.9025 -28.0493 51.4762 15.1515 29.8935 1.14035 14.9383 100.494 -35.1378 38.8923 31.1747 -165.809 6.81146 138.463 0.000480296 9.51826e-005 25.2093 0.000307716 7.50408e-006 26.0589 0.000113754 -0.00133231 -6.78399 58.398 81.6723 -50.8356 3.26465 1.49034 24.516 3.35934 1.26664 20.6561 3.44277 -0.13932 -2.31606 -1.69336 86.8811 14.3318 2.81939e-005 -0.000163304 17.6049 0.00109246 -0.000785628 18.4312 -0.000579641 -0.00024939 -2.32823 -57.481 85.9292 71.4927 0.000115265 -0.000904323 16.7952 0.00142857 -0.000278763 17.642 -0.000680173 -0.000911729 -2.32753 -63.1802 86.0904 61.4216 0.00121226 -0.00132686 19.2128 -1.19412e-005 -0.000238159 17.3973 -2.74202e-005 -0.000203093 -2.32871 -71.5735 -28.7646 4.34901 -27.404 38.5338 77.2987 6.85584 25.9397 66.2003 -1.92804 -28.8393 -12.0825 156.157 1.02402 163.952 -6.65306e-005 0.000138244 15.8287 0.000131694 0.00025061 16.0865 -0.000228882 -0.000137329 180 -107.139 -82.8123 -73.2226 -0.00285693 -0.00191581 22.0961 0.000208365 0.00019247 20.8717 -9.16846e-005 -1.52582e-005 179.505 4.99121 -89.6184 51.0367 -3.36522e-005 0.000163831 35.6445 -6.37109e-005 0.000329605 29.7198 -6.05082e-005 6.10329e-005 179.505 45.4982 -86.9799 95.6332 9.85089e-005 -4.15764e-005 39.4728 -0.000120625 0.000466896 33.5507 1.5127e-005 -1.52582e-005 179.505 37.1925 -84.7011 88.4858 -0.000145821 0.000497992 38.7326 -1.56437e-005 0.000201978 35.5923 0.00629837 -0.00216667 179.504 
0 0 0 -90 -7.01671e-015 -180 -8.75056 -2.66708 -135.949 157.103 -26.5357 -119.568 -5.26252 6.57576 -141.139 6.5394 -2.13292 122.994 -10.8354 1.60656 82.6518 3.92965e-005 -2.24658e-005 -86.4974 175.503 8.81098 -32.817 12.1588 -11.618 -133.055 -3.16556 3.20613 65.4905 0.769484 -0.248491 56.9402 -9.2579e-005 9.40276e-005 -86.4974 -1.76342 7.96149 161.315 4.93886 -2.19214 -12.4734 4.0805 1.24392 -12.1144 -1.76569 4.32551 8.28026 -5.33301 7.72453 21.8297 0.327696 3.22635 23.0487 96.7518 26.9025 -28.0493 51.5792 15.4055 30.3077 1.06063 14.9254 99.7503 -34.3568 38.8732 30.6229 -165.809 6.8115 138.463 0.000480787 6.65473e-005 25.2093 0.000308136 3.74637e-006 26.0589 0.000114343 -0.00133097 -6.78284 58.398 81.6723 -50.8356 3.26465 1.49033 24.516 3.35933 1.26678 20.6561 3.44155 -0.139262 -2.31598 -1.69337 86.8811 14.3318 2.08311e-005 -0.000169482 17.605 0.00109283 -0.000809428 18.4312 -0.00057964 -0.000327607 -2.32823 -57.4805 85.9292 71.4923 0.000114535 -0.00100123 16.7952 0.00142859 -0.000288595 17.642 -0.000680982 -0.000753591 -2.32753 -63.1802 86.0904 61.4215 0.00121247 -0.00133049 19.2128 -1.62977e-005 -9.35483e-005 17.3973 -2.7646e-005 -0.000288173 -2.32871 -71.5736 -28.7646 4.34893 -27.5338 36.9969 76.2188 6.3891 25.8896 68.1483 -1.5161 -29.4909 -11.809 156.136 1.21787 165.01 -8.01305e-005 0.000125779 15.8922 0.00011364 0.000252461 16.7941 -0.000228882 -0.000137329 180 -111.706 -82.3539 -74.9771 -9.49499e-005 -0.00024637 24.2637 0.000189699 0.000181344 22.9488 -9.16187e-005 -1.52587e-005 179.753 5.21053 -89.89 50.9262 -0.0052294 -0.00513384 33.6661 -6.40573e-005 0.000346252 29.2636 -3.02541e-005 6.10346e-005 179.753 52.0973 -87.1646 101.69 -0.00426602 -0.0055313 37.4617 -0.000122138 0.000498864 33.0664 1.5127e-005 -3.05173e-005 179.753 50.1662 -84.3932 100.091 -0.000130483 0.000519308 37.2504 -3.63401e-005 0.000230014 33.6537 0.007527 -0.00250242 179.752 
0 0 0 -90 -7.01671e-015 -180 -8.74654 -2.55831 -135.961 156.937 -26.6939 -119.634 -5.35544 6.719 -141.248 6.60751 -2.17238 123.029 -10.8354 1.60652 82.6517 3.9317e-005 -8.04108e-005 -86.4974 175.549 8.62396 -32.5908 12.1017 -11.5758 -133.091 -3.14895 3.18597 65.2674 0.769572 -0.248416 56.9403 -9.25751e-005 9.04563e-005 -86.4974 -1.78364 7.86158 161.188 4.96837 -2.06221 -12.5897 4.08689 1.34033 -12.2615 -1.76964 4.40781 8.13519 -5.20596 9.35051 22.251 0.956059 4.65912 23.6596 96.7517 26.9025 -28.0492 51.7081 15.7243 30.9083 1.0215 14.8871 99.3907 -33.5072 39.071 30.1037 -165.809 6.81156 138.463 0.000480492 4.80621e-006 25.2093 0.000307213 9.21628e-007 26.0589 0.000114246 -0.00133065 -6.7817 58.3978 81.6722 -50.8354 3.26465 1.49029 24.516 3.35933 1.26677 20.6561 3.44033 -0.139204 -2.31591 -1.69337 86.8811 14.3318 2.89372e-005 -0.00017536 17.6049 0.00109217 -0.000855218 18.4312 -0.000582918 -0.000173736 -2.32823 -57.4797 85.9291 71.4914 0.000116309 -0.000807336 16.7952 0.00142832 -0.000306829 17.642 -0.000680963 -0.00075701 -2.32753 -63.1802 86.0904 61.4216 0.00121216 -0.00133624 19.2128 -1.36251e-005 -9.25023e-005 17.3973 -2.78042e-005 -0.000118073 -2.32871 -71.5735 -28.7646 4.34909 -27.6624 35.8153 75.5239 6.03881 25.7212 69.5477 -1.19336 -30.0277 -11.6134 156.123 1.29718 165.437 0.00432494 0.00210933 15.922 0.000106787 0.000244399 17.0798 -0.000228882 -0.000137329 180 -113.492 -82.1669 -75.6273 -8.42979e-005 -0.000239241 25.143 0.000182755 0.000179893 23.7878 -9.15528e-005 -1.52588e-005 180 -31.9759 -89.9995 13.6067 -5.17014e-005 0.000169998 32.8604 -6.69012e-005 0.000354164 29.0793 -1.52588e-005 4.57764e-005 180 54.9791 -87.2293 104.353 6.86012e-005 -5.6048e-005 36.6518 -0.000126409 0.000508525 32.8707 3.05176e-005 -3.05176e-005 -180 54.9972 -84.2102 104.371 -0.00586207 -0.00665496 36.6524 -4.68769e-005 0.000240693 32.8707 0.00874329 -0.0028534 -180 
